<mxfile host="app.diagrams.net" modified="2024-05-30T09:41:57.738Z" agent="Mozilla/5.0 (Windows NT 10.0; Win64; x64) AppleWebKit/537.36 (KHTML, like Gecko) Chrome/113.0.0.0 Safari/537.36" version="24.4.10" etag="XccEIqh22F86BWD4z9d9" type="github">
  <diagram name="Page-1" id="6QBfc5bLnRa2IiwmEtCR">
    <mxGraphModel>
      <root>
        <mxCell id="0" />
        <mxCell id="1" parent="0" />
      </root>
    </mxGraphModel>
  </diagram>
</mxfile>
